<svg width="16" height="16" viewBox="0 0 16 16" fill="none" xmlns="http://www.w3.org/2000/svg">
<rect width="16" height="16" fill="#0B0B26"/>
<path d="M6.98434 11.556C7.0508 10.885 7.23912 10.1021 7.54928 9.20743L5.4889 10.6501L3.86053 11.7909L2.56448 9.81135L4.62487 8.90546C5.2452 8.65942 6.00953 8.43575 6.91788 8.23444C6.00953 7.85419 5.2452 7.52986 4.62487 7.26145L2.53125 6.42267L3.8273 4.4096L5.45567 5.55034C6.00953 5.93059 6.60771 6.45623 7.2502 7.12725C7.11727 6.14308 7.02865 5.31549 6.98434 4.64446L6.78495 2.93335H9.21088L9.01149 4.64446C8.92287 5.31549 8.72348 6.09835 8.41332 6.99304C9.21088 6.38912 9.8866 5.90822 10.4405 5.55034L12.1021 4.3425L13.3981 6.32202L11.371 7.2279C10.7506 7.47394 9.9863 7.68644 9.07796 7.86538C9.9863 8.24562 10.7506 8.56995 11.371 8.83836L13.4646 9.71069L12.1685 11.7238L10.5069 10.5495C9.95307 10.1916 9.35489 9.66596 8.7124 8.97257C8.84533 9.95673 8.94503 10.7843 9.01149 11.4554L9.21088 13.2H6.78495L6.98434 11.556Z" fill="#55D440"/>
</svg>
